<svg xmlns="http://www.w3.org/2000/svg" viewBox="0 0 42.337 42.337">
  <path d="M21.168 0a21.168 21.168 0 1021.168 21.168A21.168 21.168 0 0021.168 0zm9.455 16.37v.635a13.652 13.652 0 01-13.829 13.689 14.275 14.275 0 01-7.479-2.188 5.7 5.7 0 001.129.071 9.979 9.979 0 006.068-2.046 4.789 4.789 0 01-4.516-3.316 4.031 4.031 0 00.917.071 3.906 3.906 0 001.27-.139 4.844 4.844 0 01-3.881-4.723v-.074a3.961 3.961 0 002.188.635 4.811 4.811 0 01-1.552-6.421 13.972 13.972 0 0010.019 5.009 6.17 6.17 0 01-.139-1.129 4.862 4.862 0 014.862-4.8 4.962 4.962 0 013.529 1.552 9.184 9.184 0 003.1-1.2 4.745 4.745 0 01-2.117 2.681 11.868 11.868 0 002.823-.776 11.353 11.353 0 01-2.4 2.464z" fill="#1bacf7"/>
</svg>
